# xmcd CD database file
#
# Track frame offsets:
#	150
#	18850
#	33192
#	51358
#	70517
#	91442
#	106037
#	124683
#	145637
#	162236
#	177567
#	194858
#
# Disc length: 2974 seconds
#
# Revision: 4
# Processed by: cddbd v1.5.2PL0 Copyright (c) Steve Scherf et al.
# Submitted via: CDex 2.03
#
DISCID=9d0b9c0c
DTITLE=Flack, Roberta - Let It Be Roberta - Roberta Flack Sings The Beatles
DYEAR=2012
DGENRE=R&B
TTITLE0=In My Life
TTITLE1=Hey Jude
TTITLE2=We Can Work It Out
TTITLE3=Let It Be
TTITLE4=Oh Darling 
TTITLE5=Shoulda Known Better
TTITLE6=The Long And Winding Road 
TTITLE7=Come Together 
TTITLE8=Isn't It A Pity
TTITLE9=If I Fall In Love 
TTITLE10=And I Love Him
TTITLE11=Here, There, and Everywhere 
EXTD=YEAR: 2012
EXTT0=
EXTT1=
EXTT2=
EXTT3=
EXTT4=
EXTT5=
EXTT6=
EXTT7=
EXTT8=
EXTT9=
EXTT10=
EXTT11=
PLAYORDER=
